<?xml version="1.0" encoding="UTF-8" standalone="no"?>
<!DOCTYPE svg PUBLIC "-//W3C//DTD SVG 1.1//EN" "http://www.w3.org/Graphics/SVG/1.1/DTD/svg11.dtd">
<svg xmlns="http://www.w3.org/2000/svg" version="1.1" viewBox="0 0 1586 336" width="1586.0pt" height="336.0pt" xmlns:xlink="http://www.w3.org/1999/xlink">
<defs>
<path d="M 0.00 0.00 L 1586.00 0.00 L 1586.00 336.00 L 0.00 336.00 L 0.00 0.00 Z M 419.00 45.00 C 419.00 88.67 419.00 132.33 419.00 176.00 C 421.67 176.00 424.33 176.00 427.00 176.00 C 427.00 132.33 427.00 88.67 427.00 45.00 C 424.33 45.00 421.67 45.00 419.00 45.00 Z M 269.39 123.52 C 261.72 123.48 254.05 123.50 246.37 123.51 C 244.89 132.38 241.37 140.70 232.86 144.82 C 222.75 149.36 208.89 147.13 201.59 138.43 C 195.65 131.67 193.28 121.80 193.12 112.99 C 192.96 103.68 194.91 93.22 200.72 85.69 C 209.47 73.98 228.87 72.51 239.29 82.73 C 242.66 85.88 244.37 89.90 245.55 94.27 C 253.20 94.23 260.85 94.26 268.50 94.25 C 267.45 86.04 264.51 78.23 259.20 71.81 C 252.77 63.99 243.63 59.17 233.81 57.08 C 216.52 53.79 197.84 57.31 185.16 70.16 C 174.39 80.74 169.43 96.14 169.46 111.00 C 169.12 124.14 172.73 137.61 180.84 148.10 C 188.15 157.73 199.12 164.04 210.98 166.12 C 225.15 168.49 240.07 166.72 251.72 157.77 C 262.68 149.53 268.06 136.91 269.39 123.52 Z M 69.50 58.01 C 69.50 93.67 69.50 129.33 69.50 164.99 C 87.00 165.03 104.50 164.97 122.00 165.02 C 130.94 165.07 140.25 162.89 147.61 157.65 C 153.46 153.47 157.44 147.15 158.59 140.04 C 159.73 131.94 159.05 123.57 154.36 116.63 C 150.94 111.47 145.76 108.39 139.97 106.49 C 146.74 103.11 152.07 97.59 153.58 89.99 C 154.81 81.98 153.97 72.95 148.25 66.73 C 142.27 60.30 132.43 58.34 124.02 58.02 C 105.85 57.97 87.66 58.01 69.50 58.01 Z M 285.50 58.01 C 285.50 93.67 285.50 129.33 285.50 164.99 C 303.00 165.03 320.50 164.97 338.00 165.02 C 346.94 165.07 356.22 162.90 363.59 157.68 C 369.45 153.49 373.44 147.16 374.59 140.04 C 375.73 131.94 375.05 123.56 370.36 116.63 C 366.93 111.46 361.76 108.39 355.97 106.49 C 362.74 103.11 368.07 97.59 369.58 89.99 C 370.81 81.98 369.97 72.96 364.25 66.73 C 358.28 60.30 348.43 58.34 340.02 58.02 C 321.85 57.97 303.66 58.01 285.50 58.01 Z M 474.76 57.75 C 474.74 93.50 474.75 129.25 474.75 164.99 C 478.17 165.00 481.59 165.01 485.00 165.00 C 485.00 149.67 485.00 134.34 485.00 119.00 C 498.00 118.99 511.01 119.00 524.00 119.01 C 532.11 118.90 540.61 116.32 546.35 110.34 C 552.02 104.73 554.32 96.83 554.30 89.00 C 554.44 81.97 552.93 75.07 548.70 69.34 C 544.22 63.27 537.33 59.70 529.98 58.49 C 525.71 57.84 521.32 57.76 517.00 57.74 C 502.92 57.76 488.84 57.74 474.76 57.75 Z M 818.00 57.75 C 818.00 62.92 818.00 68.09 818.00 73.26 C 821.17 73.25 824.33 73.25 827.50 73.25 C 827.50 68.08 827.50 62.92 827.50 57.75 C 824.34 57.75 821.17 57.75 818.00 57.75 Z M 1014.75 57.75 C 1014.74 93.50 1014.75 129.25 1014.75 164.99 C 1039.67 165.01 1064.59 165.00 1089.51 165.00 C 1089.50 162.08 1089.50 159.16 1089.49 156.24 C 1068.00 156.26 1046.50 156.24 1025.01 156.25 C 1024.99 142.16 1025.00 128.08 1025.00 114.00 C 1044.92 114.00 1064.84 114.01 1084.75 114.00 C 1084.75 111.08 1084.75 108.17 1084.75 105.25 C 1064.84 105.24 1044.92 105.26 1025.01 105.24 C 1024.99 92.42 1025.00 79.59 1025.00 66.76 C 1046.25 66.74 1067.50 66.76 1088.75 66.75 C 1088.75 63.75 1088.75 60.75 1088.75 57.75 C 1064.09 57.74 1039.42 57.75 1014.75 57.75 Z M 1179.49 86.75 C 1174.99 86.75 1170.50 86.75 1166.00 86.75 C 1166.00 89.50 1166.00 92.25 1166.00 95.00 C 1170.50 95.00 1175.00 95.00 1179.51 95.01 C 1179.52 114.00 1179.47 133.04 1179.52 152.02 C 1179.71 156.91 1180.94 162.03 1185.74 164.32 C 1191.29 166.93 1198.78 165.91 1204.77 165.75 C 1204.76 162.98 1204.75 160.22 1204.73 157.46 C 1201.05 157.72 1196.35 158.58 1192.88 157.07 C 1188.93 155.20 1189.23 150.72 1189.01 147.01 C 1188.98 129.68 1189.01 112.34 1189.00 95.00 C 1194.25 95.00 1199.50 95.00 1204.75 95.01 C 1204.75 92.25 1204.75 89.50 1204.74 86.75 C 1199.50 86.75 1194.25 86.74 1189.01 86.75 C 1188.99 79.00 1189.00 71.25 1189.00 63.50 C 1185.83 63.50 1182.67 63.50 1179.51 63.50 C 1179.49 71.25 1179.52 79.00 1179.49 86.75 Z M 1301.49 86.76 C 1297.00 86.74 1292.50 86.75 1288.00 86.75 C 1288.00 89.50 1288.00 92.25 1288.00 95.00 C 1292.50 95.00 1297.00 95.00 1301.50 95.00 C 1301.51 113.99 1301.47 133.03 1301.51 152.02 C 1301.70 156.88 1302.96 162.04 1307.74 164.32 C 1313.29 166.93 1320.78 165.92 1326.77 165.74 C 1326.76 162.98 1326.74 160.22 1326.73 157.46 C 1323.05 157.72 1318.34 158.59 1314.88 157.07 C 1310.94 155.22 1311.23 150.71 1311.01 147.01 C 1310.99 129.69 1311.01 112.33 1311.00 95.00 C 1316.25 95.00 1321.50 95.00 1326.75 95.01 C 1326.75 92.25 1326.75 89.50 1326.75 86.75 C 1321.50 86.75 1316.26 86.74 1311.01 86.75 C 1310.99 79.00 1311.00 71.25 1311.00 63.50 C 1307.83 63.50 1304.67 63.50 1301.50 63.50 C 1301.49 71.25 1301.51 79.00 1301.49 86.76 Z M 679.91 139.27 C 676.69 139.25 673.47 139.24 670.25 139.22 C 668.54 144.55 666.54 149.44 662.28 153.27 C 655.97 158.87 646.10 160.27 638.20 157.73 C 631.30 155.51 626.30 150.03 623.54 143.47 C 621.52 138.84 620.89 133.99 620.47 129.00 C 640.38 129.00 660.28 129.00 680.18 129.00 C 680.25 119.13 678.96 109.64 674.11 100.91 C 669.88 93.43 662.98 87.67 654.49 85.80 C 645.52 83.96 635.59 84.73 627.73 89.76 C 621.85 93.36 617.76 98.86 615.01 105.10 C 610.93 114.61 610.29 124.83 611.44 135.03 C 612.59 143.66 615.93 152.52 622.36 158.61 C 628.45 164.44 636.66 167.10 645.00 167.04 C 653.85 167.29 662.64 165.48 669.31 159.32 C 675.25 153.95 678.02 146.87 679.91 139.27 Z M 701.75 100.46 C 701.76 95.98 701.75 91.49 701.75 87.00 C 698.84 87.00 695.92 87.00 693.00 87.00 C 693.00 113.00 693.00 139.00 693.00 165.00 C 696.17 165.00 699.33 165.00 702.50 165.00 C 702.53 151.00 702.47 136.99 702.52 122.99 C 702.67 115.34 703.57 107.51 708.15 101.12 C 712.70 94.64 721.36 92.11 728.94 93.37 C 732.58 94.00 735.93 95.86 738.03 98.95 C 741.08 103.32 741.44 108.84 741.51 114.00 C 741.49 130.99 741.50 147.99 741.50 164.99 C 744.67 165.00 747.83 165.00 751.00 165.00 C 751.01 150.67 750.98 136.33 751.01 121.99 C 751.18 114.14 752.00 105.50 757.24 99.23 C 761.69 94.04 768.42 92.55 775.00 93.18 C 779.62 93.62 784.14 95.08 786.97 98.99 C 790.31 103.68 790.37 109.46 790.51 115.00 C 790.49 131.66 790.52 148.33 790.49 164.99 C 793.66 165.00 796.83 165.00 800.00 165.00 C 800.01 147.00 799.98 129.00 800.02 111.00 C 800.03 104.58 798.67 97.55 794.43 92.52 C 791.02 88.41 786.21 86.27 781.02 85.39 C 773.64 84.32 766.19 84.78 759.63 88.62 C 755.19 91.16 751.96 95.00 749.53 99.44 C 748.05 95.76 746.25 92.39 743.06 89.91 C 736.35 84.41 726.26 83.89 718.21 86.14 C 710.67 88.34 705.53 93.80 701.75 100.46 Z M 910.91 139.27 C 907.69 139.25 904.47 139.25 901.25 139.22 C 899.60 144.31 897.73 149.01 893.79 152.80 C 887.73 158.62 877.90 160.22 870.00 157.97 C 863.00 156.01 857.76 150.69 854.85 144.16 C 852.61 139.34 851.90 134.25 851.48 129.00 C 871.38 129.00 891.28 129.00 911.18 129.00 C 911.24 119.91 910.15 111.11 906.14 102.85 C 902.12 94.68 895.13 88.15 886.15 85.96 C 877.16 83.89 866.73 84.64 858.80 89.71 C 852.67 93.46 848.46 99.24 845.72 105.79 C 841.88 115.14 841.32 125.07 842.44 135.03 C 843.69 144.37 847.50 153.95 854.97 160.03 C 861.19 165.17 869.03 167.22 877.00 167.05 C 885.40 167.23 894.02 165.17 900.31 159.32 C 906.24 153.95 909.03 146.87 910.91 139.27 Z M 1105.96 139.51 C 1102.74 139.50 1099.53 139.49 1096.31 139.52 C 1097.08 147.94 1099.87 155.95 1106.87 161.15 C 1114.75 166.92 1124.58 167.57 1134.00 166.81 C 1140.92 166.04 1148.51 163.54 1153.59 158.59 C 1161.16 151.50 1161.68 137.97 1154.67 130.34 C 1150.99 126.45 1146.19 124.05 1141.02 122.85 C 1134.61 121.37 1128.09 120.20 1121.77 118.39 C 1117.99 117.16 1113.48 115.28 1111.02 112.02 C 1107.77 107.78 1108.85 101.22 1112.71 97.73 C 1116.15 94.54 1121.46 93.32 1126.02 93.07 C 1132.03 92.85 1138.86 94.35 1143.10 98.93 C 1146.14 102.03 1146.96 105.84 1147.55 110.00 C 1150.75 110.00 1153.96 110.00 1157.16 109.98 C 1156.83 102.77 1154.44 95.96 1148.76 91.24 C 1141.07 84.83 1130.55 84.13 1121.02 85.48 C 1112.81 86.82 1104.36 90.77 1100.88 98.80 C 1098.08 106.25 1098.96 116.24 1105.88 121.21 C 1113.63 127.04 1125.32 128.33 1134.50 130.70 C 1139.27 131.99 1144.29 133.52 1147.57 137.46 C 1151.14 141.86 1150.47 148.58 1146.59 152.57 C 1142.52 156.94 1135.73 158.56 1129.98 158.93 C 1122.77 159.17 1114.58 157.00 1110.07 150.96 C 1107.41 147.59 1106.55 143.66 1105.96 139.51 Z M 1216.83 111.28 C 1220.07 111.28 1223.28 111.17 1226.51 110.95 C 1226.98 106.96 1227.49 103.27 1230.07 100.03 C 1234.05 94.75 1240.71 93.17 1247.00 93.04 C 1252.33 93.06 1258.47 93.75 1262.75 97.24 C 1266.34 100.17 1267.31 104.49 1267.42 108.93 C 1267.39 111.41 1266.90 114.26 1265.15 116.15 C 1263.32 117.91 1260.46 118.51 1258.03 118.90 C 1248.52 120.24 1237.94 120.66 1228.80 123.77 C 1223.74 125.52 1218.96 128.39 1216.38 133.25 C 1213.87 137.82 1213.69 142.95 1214.14 148.03 C 1214.75 153.76 1217.73 159.21 1222.56 162.43 C 1227.76 165.96 1233.79 167.14 1240.00 167.05 C 1246.00 167.16 1251.83 166.21 1257.03 163.08 C 1261.91 160.13 1265.13 155.87 1268.21 151.20 C 1268.29 155.38 1268.12 160.45 1271.88 163.20 C 1275.42 165.97 1281.54 164.91 1285.74 164.67 C 1285.75 161.94 1285.76 159.20 1285.80 156.46 C 1283.59 156.71 1281.10 157.41 1279.13 156.00 C 1276.89 154.15 1277.09 151.65 1276.98 149.00 C 1277.02 135.67 1276.98 122.33 1277.02 109.00 C 1277.03 102.48 1275.31 96.14 1270.45 91.55 C 1264.57 85.98 1255.76 84.83 1248.00 84.91 C 1239.37 84.85 1229.62 86.96 1223.55 93.56 C 1218.85 98.46 1217.29 104.68 1216.83 111.28 Z M 1404.92 139.28 C 1401.71 139.25 1398.49 139.24 1395.27 139.20 C 1393.38 145.03 1391.15 150.32 1386.17 154.19 C 1379.63 159.15 1370.11 160.22 1362.46 157.47 C 1355.67 155.02 1350.87 149.39 1348.26 142.80 C 1346.44 138.35 1345.89 133.74 1345.47 129.00 C 1365.38 129.00 1385.28 129.00 1405.19 129.00 C 1405.24 118.91 1403.89 109.13 1398.74 100.28 C 1394.44 93.02 1387.60 87.51 1379.25 85.74 C 1370.65 84.03 1361.00 84.73 1353.37 89.36 C 1346.98 93.08 1342.56 98.99 1339.74 105.73 C 1336.00 114.79 1335.39 124.34 1336.32 134.01 C 1337.30 142.75 1340.54 151.85 1346.89 158.15 C 1352.74 164.01 1360.78 166.92 1369.00 167.02 C 1377.97 167.37 1386.83 165.86 1393.78 159.79 C 1400.06 154.38 1402.96 147.14 1404.92 139.28 Z M 1422.96 139.51 C 1419.74 139.49 1416.53 139.49 1413.31 139.52 C 1414.07 147.71 1416.68 155.48 1423.32 160.72 C 1431.22 166.89 1441.38 167.58 1451.01 166.81 C 1458.12 166.01 1466.03 163.37 1471.08 158.09 C 1479.07 149.99 1478.43 134.74 1469.03 127.95 C 1462.91 123.10 1456.27 122.59 1448.99 120.87 C 1442.37 119.34 1433.95 118.01 1428.92 113.08 C 1423.89 108.00 1425.97 99.35 1431.97 96.04 C 1439.13 92.01 1449.75 92.00 1456.82 96.25 C 1461.87 99.30 1463.99 104.29 1464.54 109.99 C 1467.74 110.00 1470.95 110.01 1474.15 109.99 C 1473.84 103.52 1471.97 97.37 1467.33 92.68 C 1461.69 87.01 1453.79 84.89 1445.97 84.92 C 1437.61 84.81 1428.07 86.86 1421.92 92.92 C 1416.06 98.39 1415.10 107.81 1417.91 114.98 C 1420.17 120.18 1424.95 123.10 1430.02 125.09 C 1438.07 128.30 1446.34 129.04 1454.51 131.56 C 1458.34 132.78 1461.91 134.29 1464.56 137.45 C 1467.68 141.25 1467.59 146.93 1464.90 150.94 C 1462.38 154.64 1458.21 156.75 1453.97 157.83 C 1446.20 159.98 1436.48 159.13 1430.00 153.99 C 1425.45 150.33 1423.61 145.15 1422.96 139.51 Z M 576.72 105.29 C 576.78 99.19 576.75 93.09 576.74 87.00 C 573.83 87.00 570.91 87.00 568.00 87.00 C 568.00 113.00 568.00 139.00 568.00 165.00 C 571.17 165.00 574.34 165.00 577.51 164.99 C 577.51 151.32 577.45 137.65 577.53 123.98 C 577.59 115.60 580.50 107.47 586.93 101.90 C 592.43 97.05 599.31 95.42 606.50 95.41 C 606.50 92.15 606.51 88.90 606.49 85.64 C 599.26 85.82 592.43 87.05 586.64 91.64 C 581.90 95.18 579.10 99.98 576.72 105.29 Z M 932.72 105.27 C 932.78 99.18 932.75 93.09 932.75 87.00 C 929.83 87.00 926.92 87.00 924.00 87.00 C 924.00 113.00 924.00 139.00 924.00 165.00 C 927.17 165.00 930.34 165.00 933.51 164.99 C 933.52 151.32 933.46 137.65 933.53 123.99 C 933.59 115.60 936.49 107.47 942.93 101.89 C 948.43 97.05 955.32 95.42 962.51 95.39 C 962.50 92.14 962.50 88.90 962.49 85.65 C 956.02 85.85 949.88 86.70 944.39 90.39 C 938.75 93.94 935.35 99.30 932.72 105.27 Z M 818.00 87.00 C 818.00 113.00 818.00 139.00 818.00 165.00 C 821.17 165.00 824.33 165.00 827.50 165.00 C 827.49 139.00 827.50 113.00 827.50 87.00 C 824.33 87.00 821.17 87.00 818.00 87.00 Z M 67.94 189.01 C 67.94 190.34 67.94 191.67 67.94 193.00 C 536.14 192.99 1004.34 193.01 1472.53 192.99 C 1472.53 191.66 1472.54 190.34 1472.54 189.01 C 1004.34 188.99 536.14 189.00 67.94 189.01 Z M 445.86 203.00 C 445.89 209.00 445.81 215.01 445.92 221.01 C 443.70 218.77 441.68 216.34 438.52 215.47 C 431.71 213.51 424.38 217.35 421.62 223.77 C 419.10 229.70 419.36 237.45 423.15 242.81 C 426.43 247.65 432.86 250.21 438.52 248.53 C 441.81 247.51 443.76 245.12 445.96 242.66 C 445.91 244.44 445.87 246.22 445.84 248.00 C 448.31 248.00 450.79 248.00 453.26 248.00 C 453.27 233.00 453.26 218.00 453.27 203.00 C 450.80 203.00 448.33 203.00 445.86 203.00 Z M 722.16 215.99 C 720.82 216.00 719.47 216.00 718.13 216.01 C 718.13 218.00 718.13 220.00 718.13 221.99 C 719.51 222.00 720.89 222.00 722.26 222.01 C 722.27 230.67 722.27 239.33 722.27 248.00 C 724.71 248.00 727.16 248.00 729.61 247.99 C 729.60 239.33 729.60 230.67 729.60 222.00 C 732.44 222.00 735.29 222.00 738.14 222.00 C 738.13 220.00 738.13 218.00 738.13 216.01 C 735.18 216.00 732.22 216.00 729.27 215.96 C 729.72 213.78 729.35 210.82 731.48 209.52 C 733.18 208.30 736.24 209.47 738.15 209.83 C 738.14 207.79 738.13 205.75 738.13 203.71 C 733.66 202.91 729.05 202.10 725.25 205.25 C 722.08 208.20 722.44 212.03 722.16 215.99 Z M 462.74 204.00 C 462.73 206.33 462.73 208.67 462.73 211.00 C 465.36 211.00 467.98 211.00 470.60 210.99 C 470.60 208.67 470.60 206.34 470.61 204.01 C 467.98 204.00 465.36 204.00 462.74 204.00 Z M 516.73 204.00 C 516.73 206.33 516.73 208.67 516.73 211.00 C 519.36 211.00 521.98 211.00 524.60 210.99 C 524.60 208.66 524.60 206.34 524.61 204.01 C 521.98 204.00 519.36 204.00 516.73 204.00 Z M 565.73 204.00 C 565.73 206.33 565.73 208.67 565.73 211.00 C 568.36 211.00 570.98 211.00 573.61 210.99 C 573.60 208.66 573.60 206.34 573.60 204.01 C 570.98 204.00 568.36 204.00 565.73 204.00 Z M 762.14 205.00 C 762.13 219.33 762.14 233.67 762.13 248.00 C 768.75 248.00 775.38 248.00 782.00 248.02 C 785.99 248.02 790.69 247.41 794.03 245.04 C 798.49 241.97 799.58 235.44 797.35 230.72 C 795.86 227.86 793.36 226.67 790.69 225.16 C 794.79 222.44 796.65 219.00 795.88 214.01 C 794.89 208.24 789.52 205.45 784.12 205.08 C 776.80 204.85 769.46 205.07 762.14 205.00 Z M 806.13 205.00 C 806.14 219.33 806.13 233.66 806.13 248.00 C 816.96 248.00 827.78 248.01 838.60 247.99 C 838.60 245.33 838.60 242.67 838.60 240.01 C 830.89 239.99 823.18 240.01 815.46 239.99 C 815.47 236.66 815.47 233.34 815.46 230.01 C 822.18 229.99 828.89 230.01 835.60 229.99 C 835.60 227.33 835.60 224.67 835.60 222.01 C 828.89 221.99 822.18 222.01 815.46 221.99 C 815.47 219.00 815.47 216.00 815.46 213.01 C 823.11 212.99 830.75 213.01 838.40 213.00 C 838.40 210.33 838.40 207.67 838.40 205.00 C 827.64 204.99 816.89 205.00 806.13 205.00 Z M 844.41 248.00 C 847.63 248.00 850.84 248.00 854.05 247.99 C 855.33 244.66 856.63 241.33 857.94 238.01 C 863.96 238.00 869.97 237.99 875.99 238.01 C 877.30 241.33 878.61 244.66 879.88 248.00 C 883.16 248.00 886.44 248.00 889.72 248.00 C 883.65 233.70 877.51 219.42 871.49 205.08 C 868.64 205.00 865.72 204.84 862.87 205.11 C 856.48 219.18 850.69 233.84 844.41 248.00 Z M 933.76 242.14 C 931.76 240.12 929.75 238.11 927.74 236.10 C 924.45 238.68 921.45 241.02 917.05 241.03 C 910.48 241.39 905.33 236.24 904.34 229.98 C 903.01 223.11 906.31 215.24 913.48 213.33 C 919.05 211.93 923.19 214.45 927.44 217.65 C 929.45 215.44 931.45 213.21 933.48 211.01 C 924.46 203.06 909.05 202.61 900.47 211.48 C 892.04 219.96 892.16 234.88 900.90 243.11 C 907.64 249.48 917.74 250.56 926.17 247.18 C 929.08 245.94 931.29 244.04 933.76 242.14 Z M 942.13 205.00 C 942.14 219.33 942.13 233.67 942.13 248.00 C 945.24 248.00 948.35 248.00 951.47 248.00 C 951.47 242.34 951.47 236.67 951.46 231.01 C 957.27 230.99 963.07 231.00 968.87 231.01 C 968.87 236.67 968.87 242.33 968.87 248.00 C 972.00 248.00 975.13 248.00 978.27 248.00 C 978.27 233.66 978.27 219.33 978.27 205.00 C 975.13 205.00 972.00 205.00 968.86 205.00 C 968.88 211.00 968.86 217.00 968.87 223.00 C 963.07 223.00 957.26 223.01 951.46 222.99 C 951.47 216.99 951.47 211.00 951.46 205.00 C 948.35 205.00 945.24 205.00 942.13 205.00 Z M 1044.76 242.13 C 1042.76 240.12 1040.75 238.11 1038.74 236.10 C 1035.46 238.67 1032.46 241.01 1028.07 241.04 C 1021.50 241.40 1016.32 236.24 1015.34 229.98 C 1014.01 223.11 1017.30 215.24 1024.48 213.33 C 1030.04 211.93 1034.19 214.45 1038.43 217.65 C 1040.45 215.44 1042.45 213.21 1044.49 211.02 C 1035.47 203.07 1020.04 202.61 1011.47 211.47 C 1003.04 219.95 1003.15 234.89 1011.90 243.11 C 1018.63 249.49 1028.75 250.56 1037.17 247.18 C 1040.08 245.94 1042.29 244.04 1044.76 242.13 Z M 1052.54 204.99 C 1052.52 219.33 1052.53 233.66 1052.53 248.00 C 1055.69 248.00 1058.84 248.00 1062.00 248.00 C 1062.00 233.67 1062.00 219.33 1062.00 205.00 C 1058.85 205.00 1055.69 205.00 1052.54 204.99 Z M 1070.13 205.00 C 1070.13 207.67 1070.13 210.33 1070.13 213.00 C 1074.42 213.00 1078.71 213.00 1083.00 213.00 C 1083.00 224.67 1083.00 236.33 1083.00 248.00 C 1086.16 248.00 1089.31 248.00 1092.47 248.00 C 1092.47 236.34 1092.47 224.67 1092.46 213.01 C 1096.80 213.00 1101.13 213.00 1105.47 212.99 C 1105.47 210.33 1105.47 207.66 1105.47 205.00 C 1093.69 205.00 1081.91 205.00 1070.13 205.00 Z M 1107.69 205.03 C 1113.08 213.68 1118.91 222.27 1123.94 231.10 C 1124.44 236.68 1123.98 242.39 1124.13 248.00 C 1127.24 248.00 1130.35 248.00 1133.46 248.00 C 1133.55 242.65 1133.32 237.29 1133.52 231.95 C 1133.57 230.39 1134.80 228.87 1135.56 227.56 C 1140.46 220.09 1145.09 212.44 1150.03 205.00 C 1146.44 204.99 1142.84 204.99 1139.24 205.02 C 1135.80 210.75 1132.34 216.48 1128.92 222.23 C 1125.46 216.53 1122.11 210.75 1118.72 205.00 C 1115.04 204.99 1111.37 205.00 1107.69 205.03 Z M 1175.53 205.00 C 1175.53 219.33 1175.53 233.67 1175.54 248.00 C 1182.02 247.99 1188.51 248.01 1195.00 248.02 C 1199.07 248.06 1203.53 247.24 1206.92 244.88 C 1210.99 242.09 1211.94 236.15 1210.24 231.79 C 1208.75 228.43 1205.87 227.19 1202.75 225.74 C 1204.75 224.28 1206.70 223.14 1207.73 220.75 C 1209.33 217.01 1208.98 212.02 1206.02 209.00 C 1203.19 206.03 1198.99 205.05 1195.02 205.00 C 1188.53 204.96 1182.03 205.03 1175.53 205.00 Z M 1219.53 205.00 C 1219.53 219.33 1219.53 233.67 1219.53 248.00 C 1222.02 248.00 1224.51 248.00 1227.00 248.00 C 1227.00 243.00 1227.01 238.01 1227.00 233.01 C 1230.02 233.13 1233.66 232.55 1236.53 233.41 C 1240.19 238.09 1243.36 243.21 1246.89 248.01 C 1249.86 248.00 1252.83 248.00 1255.80 248.00 C 1251.86 242.67 1248.13 237.18 1244.26 231.79 C 1246.70 230.72 1248.99 229.89 1250.86 227.88 C 1255.62 222.87 1255.63 214.18 1250.75 209.25 C 1247.61 206.24 1243.28 205.07 1239.02 205.00 C 1232.53 204.95 1226.03 205.03 1219.53 205.00 Z M 1281.26 205.25 C 1274.31 206.34 1268.10 210.64 1264.97 216.98 C 1260.54 225.64 1262.35 236.81 1269.64 243.35 C 1278.22 251.15 1292.47 250.93 1300.70 242.71 C 1308.31 235.46 1309.36 223.14 1303.52 214.49 C 1298.75 207.27 1289.67 203.88 1281.26 205.25 Z M 1316.54 204.99 C 1316.52 219.33 1316.53 233.66 1316.53 248.00 C 1319.03 248.00 1321.52 248.00 1324.01 248.00 C 1324.15 243.89 1323.60 239.48 1324.31 235.46 C 1326.17 233.04 1328.53 230.99 1330.63 228.79 C 1335.44 235.23 1340.41 241.55 1345.20 248.00 C 1348.28 248.00 1351.37 247.99 1354.45 248.00 C 1349.83 242.11 1345.28 236.16 1340.81 230.16 C 1339.18 227.95 1337.22 225.78 1335.99 223.34 C 1341.72 217.11 1347.68 211.02 1353.68 205.03 C 1350.55 205.01 1347.43 205.00 1344.30 205.01 C 1337.55 212.22 1330.75 219.38 1324.02 226.61 C 1323.99 219.41 1324.01 212.20 1324.00 205.00 C 1321.51 205.00 1319.03 205.00 1316.54 204.99 Z M 1361.54 205.00 C 1361.53 219.33 1361.53 233.67 1361.53 248.00 C 1372.18 248.00 1382.82 248.00 1393.47 248.00 C 1393.47 245.66 1393.47 243.33 1393.46 241.00 C 1385.31 241.00 1377.16 241.00 1369.00 241.00 C 1369.00 237.33 1369.00 233.67 1369.00 230.00 C 1376.13 230.00 1383.27 230.00 1390.40 230.00 C 1390.40 227.67 1390.40 225.33 1390.40 223.00 C 1383.27 222.99 1376.13 223.01 1369.00 223.00 C 1369.00 219.33 1369.00 215.67 1369.00 212.00 C 1377.05 212.00 1385.09 212.01 1393.14 212.00 C 1393.14 209.67 1393.13 207.33 1393.13 205.00 C 1382.60 204.99 1372.07 205.00 1361.54 205.00 Z M 1402.53 205.00 C 1402.53 219.33 1402.53 233.67 1402.53 248.00 C 1405.02 248.00 1407.51 248.00 1410.00 248.00 C 1410.00 243.00 1410.00 238.01 1410.00 233.01 C 1413.03 233.13 1416.65 232.55 1419.53 233.40 C 1423.19 238.09 1426.37 243.20 1429.89 248.01 C 1432.86 248.00 1435.83 248.00 1438.81 248.01 C 1434.86 242.67 1431.13 237.18 1427.26 231.80 C 1429.70 230.73 1431.99 229.90 1433.86 227.88 C 1438.63 222.88 1438.63 214.17 1433.75 209.25 C 1430.63 206.25 1426.26 205.07 1422.02 205.00 C 1415.53 204.95 1409.03 205.03 1402.53 205.00 Z M 1448.06 236.51 C 1446.54 238.31 1445.01 240.11 1443.47 241.91 C 1447.48 245.23 1451.83 247.86 1457.06 248.66 C 1462.50 249.64 1469.62 248.86 1473.57 244.56 C 1476.60 241.46 1477.18 236.86 1476.25 232.78 C 1474.89 228.44 1471.04 226.35 1467.00 225.00 C 1462.98 223.54 1457.87 223.09 1454.35 220.64 C 1451.75 218.29 1452.61 214.15 1455.80 212.77 C 1461.27 210.47 1466.89 213.39 1471.49 216.27 C 1472.84 214.35 1474.20 212.43 1475.55 210.50 C 1468.42 205.13 1458.60 202.65 1450.58 207.59 C 1444.65 211.20 1443.40 220.68 1448.53 225.46 C 1453.57 230.03 1462.26 229.58 1467.20 232.80 C 1470.38 234.90 1469.53 239.69 1466.16 241.13 C 1459.55 243.71 1453.19 240.65 1448.06 236.51 Z M 535.15 239.17 C 534.05 240.82 532.95 242.48 531.86 244.14 C 537.60 248.28 544.89 250.59 551.75 247.85 C 557.33 245.75 559.66 237.85 555.64 233.30 C 551.86 229.30 545.38 229.09 541.58 226.42 C 539.14 224.49 540.78 221.87 543.26 221.08 C 547.15 220.43 550.76 222.38 554.17 223.96 C 555.11 222.15 556.04 220.35 556.96 218.54 C 551.13 215.49 544.84 213.33 538.54 216.56 C 533.62 219.16 531.82 226.13 535.49 230.49 C 538.83 234.48 545.76 234.50 549.76 237.27 C 551.60 238.78 550.79 241.85 548.54 242.56 C 543.97 244.19 538.99 241.44 535.15 239.17 Z M 595.17 215.19 C 587.75 216.43 581.79 222.43 580.98 229.97 C 579.99 237.44 584.17 244.97 591.26 247.71 C 598.47 250.76 607.45 248.41 611.98 241.97 C 616.84 235.33 616.13 225.55 610.20 219.80 C 606.31 215.94 600.53 214.32 595.17 215.19 Z M 630.93 220.81 C 630.97 219.21 631.00 217.60 631.02 216.00 C 628.55 216.00 626.07 216.00 623.60 216.00 C 623.60 226.67 623.60 237.33 623.60 248.00 C 626.07 248.00 628.53 248.00 631.00 248.00 C 631.14 241.35 630.72 234.64 631.18 228.01 C 631.59 224.17 635.31 221.45 639.10 221.99 C 642.46 222.29 644.75 224.66 644.99 228.02 C 645.37 234.65 645.02 241.35 645.13 248.00 C 647.58 248.00 650.02 248.00 652.46 248.00 C 652.46 241.33 652.47 234.67 652.49 228.00 C 652.49 224.74 652.07 221.64 650.06 218.98 C 647.15 215.03 641.15 214.00 636.78 215.80 C 634.21 216.83 632.68 218.77 630.93 220.81 Z M 692.17 215.20 C 684.74 216.45 678.79 222.42 677.98 229.97 C 676.99 237.44 681.17 244.98 688.26 247.71 C 695.48 250.76 704.44 248.40 708.98 241.97 C 713.83 235.32 713.14 225.54 707.19 219.80 C 703.33 215.94 697.51 214.32 692.17 215.20 Z M 463.00 216.00 C 463.00 226.67 463.00 237.33 463.00 248.00 C 465.47 248.00 467.93 248.00 470.40 248.00 C 470.40 237.33 470.40 226.67 470.40 216.00 C 467.93 216.00 465.47 216.00 463.00 216.00 Z M 477.56 215.99 C 482.03 226.65 486.42 237.34 490.82 248.02 C 493.06 248.00 495.30 247.98 497.54 247.94 C 501.84 237.27 506.26 226.64 510.65 216.00 C 508.08 216.00 505.50 216.00 502.93 216.00 C 500.04 223.80 497.07 231.58 494.20 239.39 C 491.27 231.62 488.43 223.82 485.54 216.04 C 482.88 216.01 480.22 215.99 477.56 215.99 Z M 517.00 216.00 C 517.00 226.67 517.00 237.33 517.00 248.00 C 519.47 248.00 521.93 248.00 524.40 248.00 C 524.40 237.33 524.40 226.67 524.40 216.00 C 521.93 216.00 519.47 216.00 517.00 216.00 Z M 566.00 216.00 C 566.00 226.66 566.00 237.33 566.00 248.00 C 568.47 248.00 570.93 248.00 573.40 248.00 C 573.40 237.33 573.40 226.67 573.40 216.00 C 570.93 216.00 568.47 216.00 566.00 216.00 Z" id="p0" />
<path d="M 419.00 45.00 C 421.67 45.00 424.33 45.00 427.00 45.00 C 427.00 88.67 427.00 132.33 427.00 176.00 C 424.33 176.00 421.67 176.00 419.00 176.00 C 419.00 132.33 419.00 88.67 419.00 45.00 Z" id="p1" />
<path d="M 233.81 57.08 C 243.63 59.17 252.77 63.99 259.20 71.81 C 264.51 78.23 267.45 86.04 268.50 94.25 C 260.85 94.26 253.20 94.23 245.55 94.27 C 244.37 89.90 242.66 85.88 239.29 82.73 C 228.87 72.51 209.47 73.98 200.72 85.69 C 194.91 93.22 192.96 103.68 193.12 112.99 C 193.28 121.80 195.65 131.67 201.59 138.43 C 208.89 147.13 222.75 149.36 232.86 144.82 C 241.37 140.70 244.89 132.38 246.37 123.51 C 254.05 123.50 261.72 123.48 269.39 123.52 C 268.06 136.91 262.68 149.53 251.72 157.77 C 240.07 166.72 225.15 168.49 210.98 166.12 C 199.12 164.04 188.15 157.73 180.84 148.10 C 172.73 137.61 169.12 124.14 169.46 111.00 C 169.43 96.14 174.39 80.74 185.16 70.16 C 197.84 57.31 216.52 53.79 233.81 57.08 Z" id="p2" />
<path d="M 69.50 58.01 C 87.66 58.01 105.85 57.97 124.02 58.02 C 132.43 58.34 142.27 60.30 148.25 66.73 C 153.97 72.95 154.81 81.98 153.58 89.99 C 152.07 97.59 146.74 103.11 139.97 106.49 C 145.76 108.39 150.94 111.47 154.36 116.63 C 159.05 123.57 159.73 131.94 158.59 140.04 C 157.44 147.15 153.46 153.47 147.61 157.65 C 140.25 162.89 130.94 165.07 122.00 165.02 C 104.50 164.97 87.00 165.03 69.50 164.99 C 69.50 129.33 69.50 93.67 69.50 58.01 Z M 93.00 76.51 C 93.00 84.67 93.00 92.83 93.00 101.00 C 101.33 100.91 109.69 101.20 118.02 100.85 C 122.97 100.58 127.83 98.92 130.02 94.09 C 131.84 89.79 131.66 83.34 127.95 80.03 C 124.78 77.01 120.18 76.52 116.00 76.48 C 108.33 76.50 100.67 76.49 93.00 76.51 Z M 93.00 117.00 C 93.00 126.83 93.00 136.67 93.00 146.50 C 101.67 146.49 110.34 146.49 119.00 146.52 C 123.64 146.52 128.75 145.55 132.09 142.09 C 135.14 138.91 135.70 134.16 135.25 129.96 C 134.83 125.81 132.99 121.90 129.31 119.71 C 125.17 117.18 120.71 117.10 116.00 116.99 C 108.34 116.99 100.67 117.00 93.00 117.00 Z" id="p3" />
<path d="M 285.50 58.01 C 303.66 58.01 321.85 57.97 340.02 58.02 C 348.43 58.34 358.28 60.30 364.25 66.73 C 369.97 72.96 370.81 81.98 369.58 89.99 C 368.07 97.59 362.74 103.11 355.97 106.49 C 361.76 108.39 366.93 111.46 370.36 116.63 C 375.05 123.56 375.73 131.94 374.59 140.04 C 373.44 147.16 369.45 153.49 363.59 157.68 C 356.22 162.90 346.94 165.07 338.00 165.02 C 320.50 164.97 303.00 165.03 285.50 164.99 C 285.50 129.33 285.50 93.67 285.50 58.01 Z M 309.00 76.51 C 309.00 84.67 309.00 92.83 309.00 101.00 C 317.33 100.91 325.69 101.20 334.02 100.85 C 338.98 100.58 343.83 98.92 346.02 94.09 C 347.84 89.79 347.66 83.34 343.95 80.03 C 340.78 77.01 336.18 76.52 332.00 76.48 C 324.33 76.50 316.67 76.49 309.00 76.51 Z M 309.00 117.00 C 309.00 126.83 309.00 136.67 309.00 146.50 C 317.67 146.49 326.34 146.49 335.00 146.52 C 339.64 146.52 344.75 145.55 348.09 142.09 C 351.14 138.91 351.70 134.16 351.25 129.96 C 350.83 125.81 348.99 121.90 345.31 119.71 C 341.17 117.18 336.71 117.10 332.00 116.99 C 324.34 116.99 316.67 117.00 309.00 117.00 Z" id="p4" />
<path d="M 474.76 57.75 C 488.84 57.74 502.92 57.76 517.00 57.74 C 521.32 57.76 525.71 57.84 529.98 58.49 C 537.33 59.70 544.22 63.27 548.70 69.34 C 552.93 75.07 554.44 81.97 554.30 89.00 C 554.32 96.83 552.02 104.73 546.35 110.34 C 540.61 116.32 532.11 118.90 524.00 119.01 C 511.01 119.00 498.00 118.99 485.00 119.00 C 485.00 134.34 485.00 149.67 485.00 165.00 C 481.59 165.01 478.17 165.00 474.75 164.99 C 474.75 129.25 474.74 93.50 474.76 57.75 Z M 485.01 66.75 C 485.00 81.25 484.99 95.74 485.01 110.24 C 496.34 110.24 507.68 110.27 519.02 110.24 C 525.53 110.09 531.78 109.19 537.01 104.99 C 542.56 100.27 544.43 93.05 543.80 85.99 C 543.34 79.94 540.51 74.04 535.26 70.75 C 530.29 67.55 524.80 66.83 519.00 66.75 C 507.67 66.74 496.34 66.76 485.01 66.75 Z" id="p5" />
<path d="M 818.00 57.75 C 821.17 57.75 824.34 57.75 827.50 57.75 C 827.50 62.92 827.50 68.08 827.50 73.25 C 824.33 73.25 821.17 73.25 818.00 73.26 C 818.00 68.09 818.00 62.92 818.00 57.75 Z" id="p6" />
<path d="M 1014.75 57.75 C 1039.42 57.75 1064.09 57.74 1088.75 57.75 C 1088.75 60.75 1088.75 63.75 1088.75 66.75 C 1067.50 66.76 1046.25 66.74 1025.00 66.76 C 1025.00 79.59 1024.99 92.42 1025.01 105.24 C 1044.92 105.26 1064.84 105.24 1084.75 105.25 C 1084.75 108.17 1084.75 111.08 1084.75 114.00 C 1064.84 114.01 1044.92 114.00 1025.00 114.00 C 1025.00 128.08 1024.99 142.16 1025.01 156.25 C 1046.50 156.24 1068.00 156.26 1089.49 156.24 C 1089.50 159.16 1089.50 162.08 1089.51 165.00 C 1064.59 165.00 1039.67 165.01 1014.75 164.99 C 1014.75 129.25 1014.74 93.50 1014.75 57.75 Z" id="p7" />
<path d="M 1179.51 63.50 C 1182.67 63.50 1185.83 63.50 1189.00 63.50 C 1189.00 71.25 1188.99 79.00 1189.01 86.75 C 1194.25 86.74 1199.50 86.75 1204.74 86.75 C 1204.75 89.50 1204.75 92.25 1204.75 95.01 C 1199.50 95.00 1194.25 95.00 1189.00 95.00 C 1189.01 112.34 1188.98 129.68 1189.01 147.01 C 1189.23 150.72 1188.93 155.20 1192.88 157.07 C 1196.35 158.58 1201.05 157.72 1204.73 157.46 C 1204.75 160.22 1204.76 162.98 1204.77 165.75 C 1198.78 165.91 1191.29 166.93 1185.74 164.32 C 1180.94 162.03 1179.71 156.91 1179.52 152.02 C 1179.47 133.04 1179.52 114.00 1179.51 95.01 C 1175.00 95.00 1170.50 95.00 1166.00 95.00 C 1166.00 92.25 1166.00 89.50 1166.00 86.75 C 1170.50 86.75 1174.99 86.75 1179.49 86.75 C 1179.52 79.00 1179.49 71.25 1179.51 63.50 Z" id="p8" />
<path d="M 1301.50 63.50 C 1304.67 63.50 1307.83 63.50 1311.00 63.50 C 1311.00 71.25 1310.99 79.00 1311.01 86.75 C 1316.26 86.74 1321.50 86.75 1326.75 86.75 C 1326.75 89.50 1326.75 92.25 1326.75 95.01 C 1321.50 95.00 1316.25 95.00 1311.00 95.00 C 1311.01 112.33 1310.99 129.69 1311.01 147.01 C 1311.23 150.71 1310.94 155.22 1314.88 157.07 C 1318.34 158.59 1323.05 157.72 1326.73 157.46 C 1326.74 160.22 1326.76 162.98 1326.77 165.74 C 1320.78 165.92 1313.29 166.93 1307.74 164.32 C 1302.96 162.04 1301.70 156.88 1301.51 152.02 C 1301.47 133.03 1301.51 113.99 1301.50 95.00 C 1297.00 95.00 1292.50 95.00 1288.00 95.00 C 1288.00 92.25 1288.00 89.50 1288.00 86.75 C 1292.50 86.75 1297.00 86.74 1301.49 86.76 C 1301.51 79.00 1301.49 71.25 1301.50 63.50 Z" id="p9" />
<path d="M 485.01 66.75 C 496.34 66.76 507.67 66.74 519.00 66.75 C 524.80 66.83 530.29 67.55 535.26 70.75 C 540.51 74.04 543.34 79.94 543.80 85.99 C 544.43 93.05 542.56 100.27 537.01 104.99 C 531.78 109.19 525.53 110.09 519.02 110.24 C 507.68 110.27 496.34 110.24 485.01 110.24 C 484.99 95.74 485.00 81.25 485.01 66.75 Z" id="p10" />
<path d="M 93.00 76.51 C 100.67 76.49 108.33 76.50 116.00 76.48 C 120.18 76.52 124.78 77.01 127.95 80.03 C 131.66 83.34 131.84 89.79 130.02 94.09 C 127.83 98.92 122.97 100.58 118.02 100.85 C 109.69 101.20 101.33 100.91 93.00 101.00 C 93.00 92.83 93.00 84.67 93.00 76.51 Z" id="p11" />
<path d="M 309.00 76.51 C 316.67 76.49 324.33 76.50 332.00 76.48 C 336.18 76.52 340.78 77.01 343.95 80.03 C 347.66 83.34 347.84 89.79 346.02 94.09 C 343.83 98.92 338.98 100.58 334.02 100.85 C 325.69 101.20 317.33 100.91 309.00 101.00 C 309.00 92.83 309.00 84.67 309.00 76.51 Z" id="p12" />
<path d="M 654.49 85.80 C 662.98 87.67 669.88 93.43 674.11 100.91 C 678.96 109.64 680.25 119.13 680.18 129.00 C 660.28 129.00 640.38 129.00 620.47 129.00 C 620.89 133.99 621.52 138.84 623.54 143.47 C 626.30 150.03 631.30 155.51 638.20 157.73 C 646.10 160.27 655.97 158.87 662.28 153.27 C 666.54 149.44 668.54 144.55 670.25 139.22 C 673.47 139.24 676.69 139.25 679.91 139.27 C 678.02 146.87 675.25 153.95 669.31 159.32 C 662.64 165.48 653.85 167.29 645.00 167.04 C 636.66 167.10 628.45 164.44 622.36 158.61 C 615.93 152.52 612.59 143.66 611.44 135.03 C 610.29 124.83 610.93 114.61 615.01 105.10 C 617.76 98.86 621.85 93.36 627.73 89.76 C 635.59 84.73 645.52 83.96 654.49 85.80 Z M 620.57 120.97 C 637.21 121.03 653.84 121.00 670.47 120.99 C 669.86 112.39 667.19 104.24 660.54 98.43 C 652.63 91.47 640.13 91.29 631.95 97.91 C 624.93 103.54 621.68 112.27 620.57 120.97 Z" id="p13" />
<path d="M 743.06 89.91 C 746.25 92.39 748.05 95.76 749.53 99.44 C 751.96 95.00 755.19 91.16 759.63 88.62 C 766.19 84.78 773.64 84.32 781.02 85.39 C 786.21 86.27 791.02 88.41 794.43 92.52 C 798.67 97.55 800.03 104.58 800.02 111.00 C 799.98 129.00 800.01 147.00 800.00 165.00 C 796.83 165.00 793.66 165.00 790.49 164.99 C 790.52 148.33 790.49 131.66 790.51 115.00 C 790.37 109.46 790.31 103.68 786.97 98.99 C 784.14 95.08 779.62 93.62 775.00 93.18 C 768.42 92.55 761.69 94.04 757.24 99.23 C 752.00 105.50 751.18 114.14 751.01 121.99 C 750.98 136.33 751.01 150.67 751.00 165.00 C 747.83 165.00 744.67 165.00 741.50 164.99 C 741.50 147.99 741.49 130.99 741.51 114.00 C 741.44 108.84 741.08 103.32 738.03 98.95 C 735.93 95.86 732.58 94.00 728.94 93.37 C 721.36 92.11 712.70 94.64 708.15 101.12 C 703.57 107.51 702.67 115.34 702.52 122.99 C 702.47 136.99 702.53 151.00 702.50 165.00 C 699.33 165.00 696.17 165.00 693.00 165.00 C 693.00 139.00 693.00 113.00 693.00 87.00 C 695.92 87.00 698.84 87.00 701.75 87.00 C 701.75 91.49 701.76 95.98 701.75 100.46 C 705.53 93.80 710.67 88.34 718.21 86.14 C 726.26 83.89 736.35 84.41 743.06 89.91 Z" id="p14" />
<path d="M 886.15 85.96 C 895.13 88.15 902.12 94.68 906.14 102.85 C 910.15 111.11 911.24 119.91 911.18 129.00 C 891.28 129.00 871.38 129.00 851.48 129.00 C 851.90 134.25 852.61 139.34 854.85 144.16 C 857.76 150.69 863.00 156.01 870.00 157.97 C 877.90 160.22 887.73 158.62 893.79 152.80 C 897.73 149.01 899.60 144.31 901.25 139.22 C 904.47 139.25 907.69 139.25 910.91 139.27 C 909.03 146.87 906.24 153.95 900.31 159.32 C 894.02 165.17 885.40 167.23 877.00 167.05 C 869.03 167.22 861.19 165.17 854.97 160.03 C 847.50 153.95 843.69 144.37 842.44 135.03 C 841.32 125.07 841.88 115.14 845.72 105.79 C 848.46 99.24 852.67 93.46 858.80 89.71 C 866.73 84.64 877.16 83.89 886.15 85.96 Z M 851.57 120.97 C 868.21 121.03 884.84 121.00 901.48 120.99 C 900.88 113.13 898.70 105.69 893.10 99.91 C 887.86 94.30 879.69 91.93 872.22 93.56 C 866.18 94.77 861.08 98.58 857.67 103.65 C 854.11 108.85 852.40 114.78 851.57 120.97 Z" id="p15" />
<path d="M 1121.02 85.48 C 1130.55 84.13 1141.07 84.83 1148.76 91.24 C 1154.44 95.96 1156.83 102.77 1157.16 109.98 C 1153.96 110.00 1150.75 110.00 1147.55 110.00 C 1146.96 105.84 1146.14 102.03 1143.10 98.93 C 1138.86 94.35 1132.03 92.85 1126.02 93.07 C 1121.46 93.32 1116.15 94.54 1112.71 97.73 C 1108.85 101.22 1107.77 107.78 1111.02 112.02 C 1113.48 115.28 1117.99 117.16 1121.77 118.39 C 1128.09 120.20 1134.61 121.37 1141.02 122.85 C 1146.19 124.05 1150.99 126.45 1154.67 130.34 C 1161.68 137.97 1161.16 151.50 1153.59 158.59 C 1148.51 163.54 1140.92 166.04 1134.00 166.81 C 1124.58 167.57 1114.75 166.92 1106.87 161.15 C 1099.87 155.95 1097.08 147.94 1096.31 139.52 C 1099.53 139.49 1102.74 139.50 1105.96 139.51 C 1106.55 143.66 1107.41 147.59 1110.07 150.96 C 1114.58 157.00 1122.77 159.17 1129.98 158.93 C 1135.73 158.56 1142.52 156.94 1146.59 152.57 C 1150.47 148.58 1151.14 141.86 1147.57 137.46 C 1144.29 133.52 1139.27 131.99 1134.50 130.70 C 1125.32 128.33 1113.63 127.04 1105.88 121.21 C 1098.96 116.24 1098.08 106.25 1100.88 98.80 C 1104.36 90.77 1112.81 86.82 1121.02 85.48 Z" id="p16" />
<path d="M 1248.00 84.91 C 1255.76 84.83 1264.57 85.98 1270.45 91.55 C 1275.31 96.14 1277.03 102.48 1277.02 109.00 C 1276.98 122.33 1277.02 135.67 1276.98 149.00 C 1277.09 151.65 1276.89 154.15 1279.13 156.00 C 1281.10 157.41 1283.59 156.71 1285.80 156.46 C 1285.76 159.20 1285.75 161.94 1285.74 164.67 C 1281.54 164.91 1275.42 165.97 1271.88 163.20 C 1268.12 160.45 1268.29 155.38 1268.21 151.20 C 1265.13 155.87 1261.91 160.13 1257.03 163.08 C 1251.83 166.21 1246.00 167.16 1240.00 167.05 C 1233.79 167.14 1227.76 165.96 1222.56 162.43 C 1217.73 159.21 1214.75 153.76 1214.14 148.03 C 1213.69 142.95 1213.87 137.82 1216.38 133.25 C 1218.96 128.39 1223.74 125.52 1228.80 123.77 C 1237.94 120.66 1248.52 120.24 1258.03 118.90 C 1260.46 118.51 1263.32 117.91 1265.15 116.15 C 1266.90 114.26 1267.39 111.41 1267.42 108.93 C 1267.31 104.49 1266.34 100.17 1262.75 97.24 C 1258.47 93.75 1252.33 93.06 1247.00 93.04 C 1240.71 93.17 1234.05 94.75 1230.07 100.03 C 1227.49 103.27 1226.98 106.96 1226.51 110.95 C 1223.28 111.17 1220.07 111.28 1216.83 111.28 C 1217.29 104.68 1218.85 98.46 1223.55 93.56 C 1229.62 86.96 1239.37 84.85 1248.00 84.91 Z M 1267.58 122.92 C 1263.33 125.87 1258.76 126.05 1253.81 126.87 C 1246.99 127.89 1239.58 128.63 1233.12 131.14 C 1228.78 132.84 1224.67 136.16 1223.87 140.99 C 1222.71 146.76 1225.30 152.61 1230.19 155.81 C 1236.67 160.15 1244.86 159.45 1251.87 156.87 C 1259.04 154.14 1264.84 148.33 1266.69 140.78 C 1268.02 135.12 1267.29 128.74 1267.58 122.92 Z" id="p17" />
<path d="M 1379.25 85.74 C 1387.60 87.51 1394.44 93.02 1398.74 100.28 C 1403.89 109.13 1405.24 118.91 1405.19 129.00 C 1385.28 129.00 1365.38 129.00 1345.47 129.00 C 1345.89 133.74 1346.44 138.35 1348.26 142.80 C 1350.87 149.39 1355.67 155.02 1362.46 157.47 C 1370.11 160.22 1379.63 159.15 1386.17 154.19 C 1391.15 150.32 1393.38 145.03 1395.27 139.20 C 1398.49 139.24 1401.71 139.25 1404.92 139.28 C 1402.96 147.14 1400.06 154.38 1393.78 159.79 C 1386.83 165.86 1377.97 167.37 1369.00 167.02 C 1360.78 166.92 1352.74 164.01 1346.89 158.15 C 1340.54 151.85 1337.30 142.75 1336.32 134.01 C 1335.39 124.34 1336.00 114.79 1339.74 105.73 C 1342.56 98.99 1346.98 93.08 1353.37 89.36 C 1361.00 84.73 1370.65 84.03 1379.25 85.74 Z M 1345.58 120.97 C 1362.21 121.03 1378.85 121.00 1395.48 120.99 C 1394.86 112.39 1392.19 104.24 1385.54 98.43 C 1377.63 91.47 1365.12 91.29 1356.95 97.91 C 1349.94 103.53 1346.67 112.29 1345.58 120.97 Z" id="p18" />
<path d="M 1445.97 84.92 C 1453.79 84.89 1461.69 87.01 1467.33 92.68 C 1471.97 97.37 1473.84 103.52 1474.15 109.99 C 1470.95 110.01 1467.74 110.00 1464.54 109.99 C 1463.99 104.29 1461.87 99.30 1456.82 96.25 C 1449.75 92.00 1439.13 92.01 1431.97 96.04 C 1425.97 99.35 1423.89 108.00 1428.92 113.08 C 1433.95 118.01 1442.37 119.34 1448.99 120.87 C 1456.27 122.59 1462.91 123.10 1469.03 127.95 C 1478.43 134.74 1479.07 149.99 1471.08 158.09 C 1466.03 163.37 1458.12 166.01 1451.01 166.81 C 1441.38 167.58 1431.22 166.89 1423.32 160.72 C 1416.68 155.48 1414.07 147.71 1413.31 139.52 C 1416.53 139.49 1419.74 139.49 1422.96 139.51 C 1423.61 145.15 1425.45 150.33 1430.00 153.99 C 1436.48 159.13 1446.20 159.98 1453.97 157.83 C 1458.21 156.75 1462.38 154.64 1464.90 150.94 C 1467.59 146.93 1467.68 141.25 1464.56 137.45 C 1461.91 134.29 1458.34 132.78 1454.51 131.56 C 1446.34 129.04 1438.07 128.30 1430.02 125.09 C 1424.95 123.10 1420.17 120.18 1417.91 114.98 C 1415.10 107.81 1416.06 98.39 1421.92 92.92 C 1428.07 86.86 1437.61 84.81 1445.97 84.92 Z" id="p19" />
<path d="M 606.49 85.64 C 606.51 88.90 606.50 92.15 606.50 95.41 C 599.31 95.42 592.43 97.05 586.93 101.90 C 580.50 107.47 577.59 115.60 577.53 123.98 C 577.45 137.65 577.51 151.32 577.51 164.99 C 574.34 165.00 571.17 165.00 568.00 165.00 C 568.00 139.00 568.00 113.00 568.00 87.00 C 570.91 87.00 573.83 87.00 576.74 87.00 C 576.75 93.09 576.78 99.19 576.72 105.29 C 579.10 99.98 581.90 95.18 586.64 91.64 C 592.43 87.05 599.26 85.82 606.49 85.64 Z" id="p20" />
<path d="M 962.49 85.65 C 962.50 88.90 962.50 92.14 962.51 95.39 C 955.32 95.42 948.43 97.05 942.93 101.89 C 936.49 107.47 933.59 115.60 933.53 123.99 C 933.46 137.65 933.52 151.32 933.51 164.99 C 930.34 165.00 927.17 165.00 924.00 165.00 C 924.00 139.00 924.00 113.00 924.00 87.00 C 926.92 87.00 929.83 87.00 932.75 87.00 C 932.75 93.09 932.78 99.18 932.72 105.27 C 935.35 99.30 938.75 93.94 944.39 90.39 C 949.88 86.70 956.02 85.85 962.49 85.65 Z" id="p21" />
<path d="M 818.00 87.00 C 821.17 87.00 824.33 87.00 827.50 87.00 C 827.50 113.00 827.49 139.00 827.50 165.00 C 824.33 165.00 821.17 165.00 818.00 165.00 C 818.00 139.00 818.00 113.00 818.00 87.00 Z" id="p22" />
<path d="M 660.54 98.43 C 667.19 104.24 669.86 112.39 670.47 120.99 C 653.84 121.00 637.21 121.03 620.57 120.97 C 621.68 112.27 624.93 103.54 631.95 97.91 C 640.13 91.29 652.63 91.47 660.54 98.43 Z" id="p23" />
<path d="M 872.22 93.56 C 879.69 91.93 887.86 94.30 893.10 99.91 C 898.70 105.69 900.88 113.13 901.48 120.99 C 884.84 121.00 868.21 121.03 851.57 120.97 C 852.40 114.78 854.11 108.85 857.67 103.65 C 861.08 98.58 866.18 94.77 872.22 93.56 Z" id="p24" />
<path d="M 1385.54 98.43 C 1392.19 104.24 1394.86 112.39 1395.48 120.99 C 1378.85 121.00 1362.21 121.03 1345.58 120.97 C 1346.67 112.29 1349.94 103.53 1356.95 97.91 C 1365.12 91.29 1377.63 91.47 1385.54 98.43 Z" id="p25" />
<path d="M 93.00 117.00 C 100.67 117.00 108.34 116.99 116.00 116.99 C 120.71 117.10 125.17 117.18 129.31 119.71 C 132.99 121.90 134.83 125.81 135.25 129.96 C 135.70 134.16 135.14 138.91 132.09 142.09 C 128.75 145.55 123.64 146.52 119.00 146.52 C 110.34 146.49 101.67 146.49 93.00 146.50 C 93.00 136.67 93.00 126.83 93.00 117.00 Z" id="p26" />
<path d="M 309.00 117.00 C 316.67 117.00 324.34 116.99 332.00 116.99 C 336.71 117.10 341.17 117.18 345.31 119.71 C 348.99 121.90 350.83 125.81 351.25 129.96 C 351.70 134.16 351.14 138.91 348.09 142.09 C 344.75 145.55 339.64 146.52 335.00 146.52 C 326.34 146.49 317.67 146.49 309.00 146.50 C 309.00 136.67 309.00 126.83 309.00 117.00 Z" id="p27" />
<path d="M 1267.58 122.92 C 1267.29 128.74 1268.02 135.12 1266.69 140.78 C 1264.84 148.33 1259.04 154.14 1251.87 156.87 C 1244.86 159.45 1236.67 160.15 1230.19 155.81 C 1225.30 152.61 1222.71 146.76 1223.87 140.99 C 1224.67 136.16 1228.78 132.84 1233.12 131.14 C 1239.58 128.63 1246.99 127.89 1253.81 126.87 C 1258.76 126.05 1263.33 125.87 1267.58 122.92 Z" id="p28" />
<path d="M 67.94 189.01 C 536.14 189.00 1004.34 188.99 1472.54 189.01 C 1472.54 190.34 1472.53 191.66 1472.53 192.99 C 1004.34 193.01 536.14 192.99 67.94 193.00 C 67.94 191.67 67.94 190.34 67.94 189.01 Z" id="p29" />
<path d="M 445.86 203.00 C 448.33 203.00 450.80 203.00 453.27 203.00 C 453.26 218.00 453.27 233.00 453.26 248.00 C 450.79 248.00 448.31 248.00 445.84 248.00 C 445.87 246.22 445.91 244.44 445.96 242.66 C 443.76 245.12 441.81 247.51 438.52 248.53 C 432.86 250.21 426.43 247.65 423.15 242.81 C 419.36 237.45 419.10 229.70 421.62 223.77 C 424.38 217.35 431.71 213.51 438.52 215.47 C 441.68 216.34 443.70 218.77 445.92 221.01 C 445.81 215.01 445.89 209.00 445.86 203.00 Z M 433.48 222.52 C 426.41 225.06 425.39 235.49 430.96 240.02 C 434.34 242.83 439.49 242.69 442.74 239.74 C 447.14 235.89 447.18 228.07 442.75 224.25 C 440.18 222.01 436.69 221.36 433.48 222.52 Z" id="p30" />
<path d="M 738.13 203.71 C 738.13 205.75 738.14 207.79 738.15 209.83 C 736.24 209.47 733.18 208.30 731.48 209.52 C 729.35 210.82 729.72 213.78 729.27 215.96 C 732.22 216.00 735.18 216.00 738.13 216.01 C 738.13 218.00 738.13 220.00 738.14 222.00 C 735.29 222.00 732.44 222.00 729.60 222.00 C 729.60 230.67 729.60 239.33 729.61 247.99 C 727.16 248.00 724.71 248.00 722.27 248.00 C 722.27 239.33 722.27 230.67 722.26 222.01 C 720.89 222.00 719.51 222.00 718.13 221.99 C 718.13 220.00 718.13 218.00 718.13 216.01 C 719.47 216.00 720.82 216.00 722.16 215.99 C 722.44 212.03 722.08 208.20 725.25 205.25 C 729.05 202.10 733.66 202.91 738.13 203.71 Z" id="p31" />
<path d="M 462.74 204.00 C 465.36 204.00 467.98 204.00 470.61 204.01 C 470.60 206.34 470.60 208.67 470.60 210.99 C 467.98 211.00 465.36 211.00 462.73 211.00 C 462.73 208.67 462.73 206.33 462.74 204.00 Z" id="p32" />
<path d="M 516.73 204.00 C 519.36 204.00 521.98 204.00 524.61 204.01 C 524.60 206.34 524.60 208.66 524.60 210.99 C 521.98 211.00 519.36 211.00 516.73 211.00 C 516.73 208.67 516.73 206.33 516.73 204.00 Z" id="p33" />
<path d="M 565.73 204.00 C 568.36 204.00 570.98 204.00 573.60 204.01 C 573.60 206.34 573.60 208.66 573.61 210.99 C 570.98 211.00 568.36 211.00 565.73 211.00 C 565.73 208.67 565.73 206.33 565.73 204.00 Z" id="p34" />
<path d="M 762.14 205.00 C 769.46 205.07 776.80 204.85 784.12 205.08 C 789.52 205.45 794.89 208.24 795.88 214.01 C 796.65 219.00 794.79 222.44 790.69 225.16 C 793.36 226.67 795.86 227.86 797.35 230.72 C 799.58 235.44 798.49 241.97 794.03 245.04 C 790.69 247.41 785.99 248.02 782.00 248.02 C 775.38 248.00 768.75 248.00 762.13 248.00 C 762.14 233.67 762.13 219.33 762.14 205.00 Z M 771.26 213.02 C 771.27 216.01 771.27 218.99 771.26 221.98 C 775.43 221.81 780.27 222.63 784.24 221.27 C 787.85 219.97 787.32 214.08 783.51 213.37 C 779.58 212.58 775.27 213.13 771.26 213.02 Z M 771.27 230.01 C 771.27 233.34 771.27 236.66 771.26 239.99 C 775.54 239.94 779.84 240.17 784.11 239.91 C 786.91 239.60 789.20 238.06 789.18 234.99 C 789.22 232.00 786.84 230.39 784.11 230.09 C 779.84 229.83 775.54 230.06 771.27 230.01 Z" id="p35" />
<path d="M 806.13 205.00 C 816.89 205.00 827.64 204.99 838.40 205.00 C 838.40 207.67 838.40 210.33 838.40 213.00 C 830.75 213.01 823.11 212.99 815.46 213.01 C 815.47 216.00 815.47 219.00 815.46 221.99 C 822.18 222.01 828.89 221.99 835.60 222.01 C 835.60 224.67 835.60 227.33 835.60 229.99 C 828.89 230.01 822.18 229.99 815.46 230.01 C 815.47 233.34 815.47 236.66 815.46 239.99 C 823.18 240.01 830.89 239.99 838.60 240.01 C 838.60 242.67 838.60 245.33 838.60 247.99 C 827.78 248.01 816.96 248.00 806.13 248.00 C 806.13 233.66 806.14 219.33 806.13 205.00 Z" id="p36" />
<path d="M 862.87 205.11 C 865.72 204.84 868.64 205.00 871.49 205.08 C 877.51 219.42 883.65 233.70 889.72 248.00 C 886.44 248.00 883.16 248.00 879.88 248.00 C 878.61 244.66 877.30 241.33 875.99 238.01 C 869.97 237.99 863.96 238.00 857.94 238.01 C 856.63 241.33 855.33 244.66 854.05 247.99 C 850.84 248.00 847.63 248.00 844.41 248.00 C 850.69 233.84 856.48 219.18 862.87 205.11 Z M 861.26 229.99 C 865.06 230.00 868.85 230.00 872.65 230.00 C 870.72 225.41 868.90 220.77 866.98 216.17 C 865.04 220.76 863.21 225.40 861.26 229.99 Z" id="p37" />
<path d="M 933.48 211.01 C 931.45 213.21 929.45 215.44 927.44 217.65 C 923.19 214.45 919.05 211.93 913.48 213.33 C 906.31 215.24 903.01 223.11 904.34 229.98 C 905.33 236.24 910.48 241.39 917.05 241.03 C 921.45 241.02 924.45 238.68 927.74 236.10 C 929.75 238.11 931.76 240.12 933.76 242.14 C 931.29 244.04 929.08 245.94 926.17 247.18 C 917.74 250.56 907.64 249.48 900.90 243.11 C 892.16 234.88 892.04 219.96 900.47 211.48 C 909.05 202.61 924.46 203.06 933.48 211.01 Z" id="p38" />
<path d="M 942.13 205.00 C 945.24 205.00 948.35 205.00 951.46 205.00 C 951.47 211.00 951.47 216.99 951.46 222.99 C 957.26 223.01 963.07 223.00 968.87 223.00 C 968.86 217.00 968.88 211.00 968.86 205.00 C 972.00 205.00 975.13 205.00 978.27 205.00 C 978.27 219.33 978.27 233.66 978.27 248.00 C 975.13 248.00 972.00 248.00 968.87 248.00 C 968.87 242.33 968.87 236.67 968.87 231.01 C 963.07 231.00 957.27 230.99 951.46 231.01 C 951.47 236.67 951.47 242.34 951.47 248.00 C 948.35 248.00 945.24 248.00 942.13 248.00 C 942.13 233.67 942.14 219.33 942.13 205.00 Z" id="p39" />
<path d="M 1044.49 211.02 C 1042.45 213.21 1040.45 215.44 1038.43 217.65 C 1034.19 214.45 1030.04 211.93 1024.48 213.33 C 1017.30 215.24 1014.01 223.11 1015.34 229.98 C 1016.32 236.24 1021.50 241.40 1028.07 241.04 C 1032.46 241.01 1035.46 238.67 1038.74 236.10 C 1040.75 238.11 1042.76 240.12 1044.76 242.13 C 1042.29 244.04 1040.08 245.94 1037.17 247.18 C 1028.75 250.56 1018.63 249.49 1011.90 243.11 C 1003.15 234.89 1003.04 219.95 1011.47 211.47 C 1020.04 202.61 1035.47 203.07 1044.49 211.02 Z" id="p40" />
<path d="M 1052.54 204.99 C 1055.69 205.00 1058.85 205.00 1062.00 205.00 C 1062.00 219.33 1062.00 233.67 1062.00 248.00 C 1058.84 248.00 1055.69 248.00 1052.53 248.00 C 1052.53 233.66 1052.52 219.33 1052.54 204.99 Z" id="p41" />
<path d="M 1070.13 205.00 C 1081.91 205.00 1093.69 205.00 1105.47 205.00 C 1105.47 207.66 1105.47 210.33 1105.47 212.99 C 1101.13 213.00 1096.80 213.00 1092.46 213.01 C 1092.47 224.67 1092.47 236.34 1092.47 248.00 C 1089.31 248.00 1086.16 248.00 1083.00 248.00 C 1083.00 236.33 1083.00 224.67 1083.00 213.00 C 1078.71 213.00 1074.42 213.00 1070.13 213.00 C 1070.13 210.33 1070.13 207.67 1070.13 205.00 Z" id="p42" />
<path d="M 1107.69 205.03 C 1111.37 205.00 1115.04 204.99 1118.72 205.00 C 1122.11 210.75 1125.46 216.53 1128.92 222.23 C 1132.34 216.48 1135.80 210.75 1139.24 205.02 C 1142.84 204.99 1146.44 204.99 1150.03 205.00 C 1145.09 212.44 1140.46 220.09 1135.56 227.56 C 1134.80 228.87 1133.57 230.39 1133.52 231.95 C 1133.32 237.29 1133.55 242.65 1133.46 248.00 C 1130.35 248.00 1127.24 248.00 1124.13 248.00 C 1123.98 242.39 1124.44 236.68 1123.94 231.10 C 1118.91 222.27 1113.08 213.68 1107.69 205.03 Z" id="p43" />
<path d="M 1175.53 205.00 C 1182.03 205.03 1188.53 204.96 1195.02 205.00 C 1198.99 205.05 1203.19 206.03 1206.02 209.00 C 1208.98 212.02 1209.33 217.01 1207.73 220.75 C 1206.70 223.14 1204.75 224.28 1202.75 225.74 C 1205.87 227.19 1208.75 228.43 1210.24 231.79 C 1211.94 236.15 1210.99 242.09 1206.92 244.88 C 1203.53 247.24 1199.07 248.06 1195.00 248.02 C 1188.51 248.01 1182.02 247.99 1175.54 248.00 C 1175.53 233.67 1175.53 219.33 1175.53 205.00 Z M 1182.87 212.01 C 1182.86 215.67 1182.87 219.33 1182.87 222.99 C 1187.72 222.71 1193.34 223.79 1197.95 222.18 C 1202.08 220.65 1202.36 214.50 1198.22 212.77 C 1193.51 211.24 1187.81 212.29 1182.87 212.01 Z M 1182.87 230.01 C 1182.86 233.67 1182.86 237.33 1182.87 240.99 C 1186.91 240.97 1190.96 241.06 1195.00 241.01 C 1197.41 240.95 1200.18 240.80 1202.05 239.09 C 1204.09 237.26 1204.09 233.75 1202.05 231.92 C 1200.23 230.27 1197.34 230.05 1195.00 229.99 C 1190.96 229.94 1186.91 230.03 1182.87 230.01 Z" id="p44" />
<path d="M 1219.53 205.00 C 1226.03 205.03 1232.53 204.95 1239.02 205.00 C 1243.28 205.07 1247.61 206.24 1250.75 209.25 C 1255.63 214.18 1255.62 222.87 1250.86 227.88 C 1248.99 229.89 1246.70 230.72 1244.26 231.79 C 1248.13 237.18 1251.86 242.67 1255.80 248.00 C 1252.83 248.00 1249.86 248.00 1246.89 248.01 C 1243.36 243.21 1240.19 238.09 1236.53 233.41 C 1233.66 232.55 1230.02 233.13 1227.00 233.01 C 1227.01 238.01 1227.00 243.00 1227.00 248.00 C 1224.51 248.00 1222.02 248.00 1219.53 248.00 C 1219.53 233.67 1219.53 219.33 1219.53 205.00 Z M 1227.00 212.01 C 1227.00 216.67 1227.00 221.33 1227.00 225.99 C 1232.08 225.67 1238.17 226.90 1242.93 225.00 C 1247.99 222.86 1248.13 214.91 1242.92 212.87 C 1238.05 211.18 1232.12 212.30 1227.00 212.01 Z" id="p45" />
<path d="M 1281.26 205.25 C 1289.67 203.88 1298.75 207.27 1303.52 214.49 C 1309.36 223.14 1308.31 235.46 1300.70 242.71 C 1292.47 250.93 1278.22 251.15 1269.64 243.35 C 1262.35 236.81 1260.54 225.64 1264.97 216.98 C 1268.10 210.64 1274.31 206.34 1281.26 205.25 Z M 1280.42 212.63 C 1271.89 215.34 1268.28 225.28 1271.71 233.26 C 1274.79 240.94 1284.18 244.26 1291.51 240.52 C 1298.42 237.06 1301.01 228.49 1298.40 221.43 C 1295.86 214.22 1287.68 210.24 1280.42 212.63 Z" id="p46" />
<path d="M 1316.54 204.99 C 1319.03 205.00 1321.51 205.00 1324.00 205.00 C 1324.01 212.20 1323.99 219.41 1324.02 226.61 C 1330.75 219.38 1337.55 212.22 1344.30 205.01 C 1347.43 205.00 1350.55 205.01 1353.68 205.03 C 1347.68 211.02 1341.72 217.11 1335.99 223.34 C 1337.22 225.78 1339.18 227.95 1340.81 230.16 C 1345.28 236.16 1349.83 242.11 1354.45 248.00 C 1351.37 247.99 1348.28 248.00 1345.20 248.00 C 1340.41 241.55 1335.44 235.23 1330.63 228.79 C 1328.53 230.99 1326.17 233.04 1324.31 235.46 C 1323.60 239.48 1324.15 243.89 1324.01 248.00 C 1321.52 248.00 1319.03 248.00 1316.53 248.00 C 1316.53 233.66 1316.52 219.33 1316.54 204.99 Z" id="p47" />
<path d="M 1361.54 205.00 C 1372.07 205.00 1382.60 204.99 1393.13 205.00 C 1393.13 207.33 1393.14 209.67 1393.14 212.00 C 1385.09 212.01 1377.05 212.00 1369.00 212.00 C 1369.00 215.67 1369.00 219.33 1369.00 223.00 C 1376.13 223.01 1383.27 222.99 1390.40 223.00 C 1390.40 225.33 1390.40 227.67 1390.40 230.00 C 1383.27 230.00 1376.13 230.00 1369.00 230.00 C 1369.00 233.67 1369.00 237.33 1369.00 241.00 C 1377.16 241.00 1385.31 241.00 1393.46 241.00 C 1393.47 243.33 1393.47 245.66 1393.47 248.00 C 1382.82 248.00 1372.18 248.00 1361.53 248.00 C 1361.53 233.67 1361.53 219.33 1361.54 205.00 Z" id="p48" />
<path d="M 1402.53 205.00 C 1409.03 205.03 1415.53 204.95 1422.02 205.00 C 1426.26 205.07 1430.63 206.25 1433.75 209.25 C 1438.63 214.17 1438.63 222.88 1433.86 227.88 C 1431.99 229.90 1429.70 230.73 1427.26 231.80 C 1431.13 237.18 1434.86 242.67 1438.81 248.01 C 1435.83 248.00 1432.86 248.00 1429.89 248.01 C 1426.37 243.20 1423.19 238.09 1419.53 233.40 C 1416.65 232.55 1413.03 233.13 1410.00 233.01 C 1410.00 238.01 1410.00 243.00 1410.00 248.00 C 1407.51 248.00 1405.02 248.00 1402.53 248.00 C 1402.53 233.67 1402.53 219.33 1402.53 205.00 Z M 1410.00 212.01 C 1410.00 216.67 1410.00 221.33 1410.00 225.99 C 1415.09 225.67 1421.16 226.90 1425.93 225.01 C 1431.00 222.86 1431.12 214.90 1425.91 212.87 C 1421.04 211.20 1415.12 212.30 1410.00 212.01 Z" id="p49" />
<path d="M 1475.55 210.50 C 1474.20 212.43 1472.84 214.35 1471.49 216.27 C 1466.89 213.39 1461.27 210.47 1455.80 212.77 C 1452.61 214.15 1451.75 218.29 1454.35 220.64 C 1457.87 223.09 1462.98 223.54 1467.00 225.00 C 1471.04 226.35 1474.89 228.44 1476.25 232.78 C 1477.18 236.86 1476.60 241.46 1473.57 244.56 C 1469.62 248.86 1462.50 249.64 1457.06 248.66 C 1451.83 247.86 1447.48 245.23 1443.47 241.91 C 1445.01 240.11 1446.54 238.31 1448.06 236.51 C 1453.19 240.65 1459.55 243.71 1466.16 241.13 C 1469.53 239.69 1470.38 234.90 1467.20 232.80 C 1462.26 229.58 1453.57 230.03 1448.53 225.46 C 1443.40 220.68 1444.65 211.20 1450.58 207.59 C 1458.60 202.65 1468.42 205.13 1475.55 210.50 Z" id="p50" />
<path d="M 1182.87 212.01 C 1187.81 212.29 1193.51 211.24 1198.22 212.77 C 1202.36 214.50 1202.08 220.65 1197.95 222.18 C 1193.34 223.79 1187.72 222.71 1182.87 222.99 C 1182.87 219.33 1182.86 215.67 1182.87 212.01 Z" id="p51" />
<path d="M 1227.00 212.01 C 1232.12 212.30 1238.05 211.18 1242.92 212.87 C 1248.13 214.91 1247.99 222.86 1242.93 225.00 C 1238.17 226.90 1232.08 225.67 1227.00 225.99 C 1227.00 221.33 1227.00 216.67 1227.00 212.01 Z" id="p52" />
<path d="M 1280.42 212.63 C 1287.68 210.24 1295.86 214.22 1298.40 221.43 C 1301.01 228.49 1298.42 237.06 1291.51 240.52 C 1284.18 244.26 1274.79 240.94 1271.71 233.26 C 1268.28 225.28 1271.89 215.34 1280.42 212.63 Z" id="p53" />
<path d="M 1410.00 212.01 C 1415.12 212.30 1421.04 211.20 1425.91 212.87 C 1431.12 214.90 1431.00 222.86 1425.93 225.01 C 1421.16 226.90 1415.09 225.67 1410.00 225.99 C 1410.00 221.33 1410.00 216.67 1410.00 212.01 Z" id="p54" />
<path d="M 771.26 213.02 C 775.27 213.13 779.58 212.58 783.51 213.37 C 787.32 214.08 787.85 219.97 784.24 221.27 C 780.27 222.63 775.43 221.81 771.26 221.98 C 771.27 218.99 771.27 216.01 771.26 213.02 Z" id="p55" />
<path d="M 556.96 218.54 C 556.04 220.35 555.11 222.15 554.17 223.96 C 550.76 222.38 547.15 220.43 543.26 221.08 C 540.78 221.87 539.14 224.49 541.58 226.42 C 545.38 229.09 551.86 229.30 555.64 233.30 C 559.66 237.85 557.33 245.75 551.75 247.85 C 544.89 250.59 537.60 248.28 531.86 244.14 C 532.95 242.48 534.05 240.82 535.15 239.17 C 538.99 241.44 543.97 244.19 548.54 242.56 C 550.79 241.85 551.60 238.78 549.76 237.27 C 545.76 234.50 538.83 234.48 535.49 230.49 C 531.82 226.13 533.62 219.16 538.54 216.56 C 544.84 213.33 551.13 215.49 556.96 218.54 Z" id="p56" />
<path d="M 595.17 215.19 C 600.53 214.32 606.31 215.94 610.20 219.80 C 616.13 225.55 616.84 235.33 611.98 241.97 C 607.45 248.41 598.47 250.76 591.26 247.71 C 584.17 244.97 579.99 237.44 580.98 229.97 C 581.79 222.43 587.75 216.43 595.17 215.19 Z M 594.44 222.55 C 588.19 224.81 586.45 232.72 590.09 237.94 C 593.15 242.40 599.80 243.39 604.07 240.09 C 608.89 236.52 609.13 228.35 604.55 224.48 C 601.85 221.96 597.88 221.35 594.44 222.55 Z" id="p57" />
<path d="M 650.06 218.98 C 652.07 221.64 652.49 224.74 652.49 228.00 C 652.47 234.67 652.46 241.33 652.46 248.00 C 650.02 248.00 647.58 248.00 645.13 248.00 C 645.02 241.35 645.37 234.65 644.99 228.02 C 644.75 224.66 642.46 222.29 639.10 221.99 C 635.31 221.45 631.59 224.17 631.18 228.01 C 630.72 234.64 631.14 241.35 631.00 248.00 C 628.53 248.00 626.07 248.00 623.60 248.00 C 623.60 237.33 623.60 226.67 623.60 216.00 C 626.07 216.00 628.55 216.00 631.02 216.00 C 631.00 217.60 630.97 219.21 630.93 220.81 C 632.68 218.77 634.21 216.83 636.78 215.80 C 641.15 214.00 647.15 215.03 650.06 218.98 Z" id="p58" />
<path d="M 692.17 215.20 C 697.51 214.32 703.33 215.94 707.19 219.80 C 713.14 225.54 713.83 235.32 708.98 241.97 C 704.44 248.40 695.48 250.76 688.26 247.71 C 681.17 244.98 676.99 237.44 677.98 229.97 C 678.79 222.42 684.74 216.45 692.17 215.20 Z M 691.44 222.55 C 685.19 224.81 683.45 232.72 687.09 237.94 C 690.01 242.19 696.21 243.32 700.49 240.49 C 705.84 237.15 706.33 228.52 701.55 224.48 C 698.85 221.96 694.89 221.36 691.44 222.55 Z" id="p59" />
<path d="M 463.00 216.00 C 465.47 216.00 467.93 216.00 470.40 216.00 C 470.40 226.67 470.40 237.33 470.40 248.00 C 467.93 248.00 465.47 248.00 463.00 248.00 C 463.00 237.33 463.00 226.67 463.00 216.00 Z" id="p60" />
<path d="M 477.56 215.99 C 480.22 215.99 482.88 216.01 485.54 216.04 C 488.43 223.82 491.27 231.62 494.20 239.39 C 497.07 231.58 500.04 223.80 502.93 216.00 C 505.50 216.00 508.08 216.00 510.65 216.00 C 506.26 226.64 501.84 237.27 497.54 247.94 C 495.30 247.98 493.06 248.00 490.82 248.02 C 486.42 237.34 482.03 226.65 477.56 215.99 Z" id="p61" />
<path d="M 517.00 216.00 C 519.47 216.00 521.93 216.00 524.40 216.00 C 524.40 226.67 524.40 237.33 524.40 248.00 C 521.93 248.00 519.47 248.00 517.00 248.00 C 517.00 237.33 517.00 226.67 517.00 216.00 Z" id="p62" />
<path d="M 566.00 216.00 C 568.47 216.00 570.93 216.00 573.40 216.00 C 573.40 226.67 573.40 237.33 573.40 248.00 C 570.93 248.00 568.47 248.00 566.00 248.00 C 566.00 237.33 566.00 226.66 566.00 216.00 Z" id="p63" />
<path d="M 866.98 216.17 C 868.90 220.77 870.72 225.41 872.65 230.00 C 868.85 230.00 865.06 230.00 861.26 229.99 C 863.21 225.40 865.04 220.76 866.98 216.17 Z" id="p64" />
<path d="M 433.48 222.52 C 436.69 221.36 440.18 222.01 442.75 224.25 C 447.18 228.07 447.14 235.89 442.74 239.74 C 439.49 242.69 434.34 242.83 430.96 240.02 C 425.39 235.49 426.41 225.06 433.48 222.52 Z" id="p65" />
<path d="M 594.44 222.55 C 597.88 221.35 601.85 221.96 604.55 224.48 C 609.13 228.35 608.89 236.52 604.07 240.09 C 599.80 243.39 593.15 242.40 590.09 237.94 C 586.45 232.72 588.19 224.81 594.44 222.55 Z" id="p66" />
<path d="M 691.44 222.55 C 694.89 221.36 698.85 221.96 701.55 224.48 C 706.33 228.52 705.84 237.15 700.49 240.49 C 696.21 243.32 690.01 242.19 687.09 237.94 C 683.45 232.72 685.19 224.81 691.44 222.55 Z" id="p67" />
<path d="M 771.27 230.01 C 775.54 230.06 779.84 229.83 784.11 230.09 C 786.84 230.39 789.22 232.00 789.18 234.99 C 789.20 238.06 786.91 239.60 784.11 239.91 C 779.84 240.17 775.54 239.94 771.26 239.99 C 771.27 236.66 771.27 233.34 771.27 230.01 Z" id="p68" />
<path d="M 1182.87 230.01 C 1186.91 230.03 1190.96 229.94 1195.00 229.99 C 1197.34 230.05 1200.23 230.27 1202.05 231.92 C 1204.09 233.75 1204.09 237.26 1202.05 239.09 C 1200.18 240.80 1197.41 240.95 1195.00 241.01 C 1190.96 241.06 1186.91 240.97 1182.87 240.99 C 1182.86 237.33 1182.86 233.67 1182.87 230.01 Z" id="p69" />
</defs>
<g stroke-width="10pt">
<use stroke="#ffffff" xlink:href="#p0" />
<use stroke="#18205f" xlink:href="#p1" />
<use stroke="#18205f" xlink:href="#p2" />
<use stroke="#18205f" xlink:href="#p3" />
<use stroke="#18205f" xlink:href="#p4" />
<use stroke="#18205f" xlink:href="#p5" />
<use stroke="#18205f" xlink:href="#p6" />
<use stroke="#18205f" xlink:href="#p7" />
<use stroke="#18205f" xlink:href="#p8" />
<use stroke="#18205f" xlink:href="#p9" />
<use stroke="#ffffff" xlink:href="#p10" />
<use stroke="#ffffff" xlink:href="#p11" />
<use stroke="#ffffff" xlink:href="#p12" />
<use stroke="#18205f" xlink:href="#p13" />
<use stroke="#18205f" xlink:href="#p14" />
<use stroke="#18205f" xlink:href="#p15" />
<use stroke="#18205f" xlink:href="#p16" />
<use stroke="#18205f" xlink:href="#p17" />
<use stroke="#18205f" xlink:href="#p18" />
<use stroke="#18205f" xlink:href="#p19" />
<use stroke="#18205f" xlink:href="#p20" />
<use stroke="#18205f" xlink:href="#p21" />
<use stroke="#18205f" xlink:href="#p22" />
<use stroke="#ffffff" xlink:href="#p23" />
<use stroke="#ffffff" xlink:href="#p24" />
<use stroke="#ffffff" xlink:href="#p25" />
<use stroke="#ffffff" xlink:href="#p26" />
<use stroke="#ffffff" xlink:href="#p27" />
<use stroke="#ffffff" xlink:href="#p28" />
<use stroke="#18205f" xlink:href="#p29" />
<use stroke="#18205f" xlink:href="#p30" />
<use stroke="#18205f" xlink:href="#p31" />
<use stroke="#18205f" xlink:href="#p32" />
<use stroke="#18205f" xlink:href="#p33" />
<use stroke="#18205f" xlink:href="#p34" />
<use stroke="#18205f" xlink:href="#p35" />
<use stroke="#18205f" xlink:href="#p36" />
<use stroke="#18205f" xlink:href="#p37" />
<use stroke="#18205f" xlink:href="#p38" />
<use stroke="#18205f" xlink:href="#p39" />
<use stroke="#18205f" xlink:href="#p40" />
<use stroke="#18205f" xlink:href="#p41" />
<use stroke="#18205f" xlink:href="#p42" />
<use stroke="#18205f" xlink:href="#p43" />
<use stroke="#18205f" xlink:href="#p44" />
<use stroke="#18205f" xlink:href="#p45" />
<use stroke="#18205f" xlink:href="#p46" />
<use stroke="#18205f" xlink:href="#p47" />
<use stroke="#18205f" xlink:href="#p48" />
<use stroke="#18205f" xlink:href="#p49" />
<use stroke="#18205f" xlink:href="#p50" />
<use stroke="#ffffff" xlink:href="#p51" />
<use stroke="#ffffff" xlink:href="#p52" />
<use stroke="#ffffff" xlink:href="#p53" />
<use stroke="#ffffff" xlink:href="#p54" />
<use stroke="#ffffff" xlink:href="#p55" />
<use stroke="#18205f" xlink:href="#p56" />
<use stroke="#18205f" xlink:href="#p57" />
<use stroke="#18205f" xlink:href="#p58" />
<use stroke="#18205f" xlink:href="#p59" />
<use stroke="#18205f" xlink:href="#p60" />
<use stroke="#18205f" xlink:href="#p61" />
<use stroke="#18205f" xlink:href="#p62" />
<use stroke="#18205f" xlink:href="#p63" />
<use stroke="#ffffff" xlink:href="#p64" />
<use stroke="#ffffff" xlink:href="#p65" />
<use stroke="#ffffff" xlink:href="#p66" />
<use stroke="#ffffff" xlink:href="#p67" />
<use stroke="#ffffff" xlink:href="#p68" />
<use stroke="#ffffff" xlink:href="#p69" />
</g>
<g>
<use fill="#ffffff" xlink:href="#p0" />
<use fill="#18205f" xlink:href="#p1" />
<use fill="#18205f" xlink:href="#p2" />
<use fill="#18205f" xlink:href="#p3" />
<use fill="#18205f" xlink:href="#p4" />
<use fill="#18205f" xlink:href="#p5" />
<use fill="#18205f" xlink:href="#p6" />
<use fill="#18205f" xlink:href="#p7" />
<use fill="#18205f" xlink:href="#p8" />
<use fill="#18205f" xlink:href="#p9" />
<use fill="#ffffff" xlink:href="#p10" />
<use fill="#ffffff" xlink:href="#p11" />
<use fill="#ffffff" xlink:href="#p12" />
<use fill="#18205f" xlink:href="#p13" />
<use fill="#18205f" xlink:href="#p14" />
<use fill="#18205f" xlink:href="#p15" />
<use fill="#18205f" xlink:href="#p16" />
<use fill="#18205f" xlink:href="#p17" />
<use fill="#18205f" xlink:href="#p18" />
<use fill="#18205f" xlink:href="#p19" />
<use fill="#18205f" xlink:href="#p20" />
<use fill="#18205f" xlink:href="#p21" />
<use fill="#18205f" xlink:href="#p22" />
<use fill="#ffffff" xlink:href="#p23" />
<use fill="#ffffff" xlink:href="#p24" />
<use fill="#ffffff" xlink:href="#p25" />
<use fill="#ffffff" xlink:href="#p26" />
<use fill="#ffffff" xlink:href="#p27" />
<use fill="#ffffff" xlink:href="#p28" />
<use fill="#18205f" xlink:href="#p29" />
<use fill="#18205f" xlink:href="#p30" />
<use fill="#18205f" xlink:href="#p31" />
<use fill="#18205f" xlink:href="#p32" />
<use fill="#18205f" xlink:href="#p33" />
<use fill="#18205f" xlink:href="#p34" />
<use fill="#18205f" xlink:href="#p35" />
<use fill="#18205f" xlink:href="#p36" />
<use fill="#18205f" xlink:href="#p37" />
<use fill="#18205f" xlink:href="#p38" />
<use fill="#18205f" xlink:href="#p39" />
<use fill="#18205f" xlink:href="#p40" />
<use fill="#18205f" xlink:href="#p41" />
<use fill="#18205f" xlink:href="#p42" />
<use fill="#18205f" xlink:href="#p43" />
<use fill="#18205f" xlink:href="#p44" />
<use fill="#18205f" xlink:href="#p45" />
<use fill="#18205f" xlink:href="#p46" />
<use fill="#18205f" xlink:href="#p47" />
<use fill="#18205f" xlink:href="#p48" />
<use fill="#18205f" xlink:href="#p49" />
<use fill="#18205f" xlink:href="#p50" />
<use fill="#ffffff" xlink:href="#p51" />
<use fill="#ffffff" xlink:href="#p52" />
<use fill="#ffffff" xlink:href="#p53" />
<use fill="#ffffff" xlink:href="#p54" />
<use fill="#ffffff" xlink:href="#p55" />
<use fill="#18205f" xlink:href="#p56" />
<use fill="#18205f" xlink:href="#p57" />
<use fill="#18205f" xlink:href="#p58" />
<use fill="#18205f" xlink:href="#p59" />
<use fill="#18205f" xlink:href="#p60" />
<use fill="#18205f" xlink:href="#p61" />
<use fill="#18205f" xlink:href="#p62" />
<use fill="#18205f" xlink:href="#p63" />
<use fill="#ffffff" xlink:href="#p64" />
<use fill="#ffffff" xlink:href="#p65" />
<use fill="#ffffff" xlink:href="#p66" />
<use fill="#ffffff" xlink:href="#p67" />
<use fill="#ffffff" xlink:href="#p68" />
<use fill="#ffffff" xlink:href="#p69" />
</g>
</svg>